<?xml version="1.0" encoding="utf-8"?>
<!-- Generator: Adobe Illustrator 26.0.1, SVG Export Plug-In . SVG Version: 6.00 Build 0)  -->
<svg version="1.1" id="Calque_1" xmlns="http://www.w3.org/2000/svg" xmlns:xlink="http://www.w3.org/1999/xlink" x="0px" y="0px"
	 viewBox="0 0 800 800" style="enable-background:new 0 0 800 800;" xml:space="preserve">
<style type="text/css">
	.st0{fill-rule:evenodd;clip-rule:evenodd;fill:#FFFFFF;}
</style>
<path class="st0" d="M133.3,166.7c-18.4,0-33.3,14.9-33.3,33.3s14.9,33.3,33.3,33.3h533.3c18.4,0,33.3-14.9,33.3-33.3
	s-14.9-33.3-33.3-33.3H133.3z M233.3,400c0-18.4,14.9-33.3,33.3-33.3h400c18.4,0,33.3,14.9,33.3,33.3c0,18.4-14.9,33.3-33.3,33.3
	h-400C248.3,433.3,233.3,418.4,233.3,400z M433.3,600c0-18.4,14.9-33.3,33.3-33.3h200c18.4,0,33.3,14.9,33.3,33.3
	c0,18.4-14.9,33.3-33.3,33.3h-200C448.3,633.3,433.3,618.4,433.3,600z"/>
</svg>
